<?xml version="1.0" encoding="UTF-8" standalone="no"?>
<svg
   xmlns:dc="http://purl.org/dc/elements/1.1/"
   xmlns:cc="http://creativecommons.org/ns#"
   xmlns:rdf="http://www.w3.org/1999/02/22-rdf-syntax-ns#"
   xmlns:svg="http://www.w3.org/2000/svg"
   xmlns="http://www.w3.org/2000/svg"
   viewBox="0 0 1365.3333 1365.3333"
   height="1365.3333"
   width="1365.3333"
   xml:space="preserve"
   id="svg2"
   version="1.1"><metadata
     id="metadata8"><rdf:RDF><cc:Work
         rdf:about=""><dc:format>image/svg+xml</dc:format><dc:type
           rdf:resource="http://purl.org/dc/dcmitype/StillImage" /></cc:Work></rdf:RDF></metadata><defs
     id="defs6"><clipPath
       id="clipPath18"
       clipPathUnits="userSpaceOnUse"><path
         id="path16"
         d="M 510.035,1024 C 232.308,1024 0,803.364 0,531.196 v 0 C 0,396.18 62.593,273.867 152.342,184.861 v 0 c 9.578,-9.499 14.972,-22.422 14.972,-35.912 v 0 -98.269 c 0,-38.048 40.408,-62.49 74.107,-44.827 v 0 l 91.565,47.993 c 11.41,5.981 24.68,7.43 37.072,3.915 v 0 c 44.436,-12.601 91.398,-19.37 139.977,-19.37 v 0 C 787.764,38.391 1024,259.028 1024,531.196 v 0 C 1024,803.364 787.764,1024 510.035,1024 Z M 336.35,349.461 v 365.566 c 0,34.365 27.858,62.225 62.224,62.225 v 0 h 71.557 c 34.366,0 62.224,-27.86 62.224,-62.225 v 0 -250.686 c 0,-12.177 7.105,-23.235 18.18,-28.296 v 0 l 204.676,-93.54 c 28.281,-12.925 19.063,-55.267 -12.031,-55.267 v 0 H 398.574 c -34.366,0 -62.224,27.857 -62.224,62.223" /></clipPath><linearGradient
       id="linearGradient30"
       spreadMethod="pad"
       gradientTransform="matrix(-646.5816,-909.01764,-909.01764,646.5816,800.8158,938.1134)"
       gradientUnits="userSpaceOnUse"
       y2="0"
       x2="1"
       y1="0"
       x1="0"><stop
         id="stop24"
         offset="0"
         style="stop-opacity:1;stop-color:#2ec3fd" /><stop
         id="stop26"
         offset="0.993399"
         style="stop-opacity:1;stop-color:#0074ff" /><stop
         id="stop28"
         offset="1"
         style="stop-opacity:1;stop-color:#0074ff" /></linearGradient></defs><g
     transform="matrix(1.3333333,0,0,-1.3333333,0,1365.3333)"
     id="g10"><g
       id="g12"><g
         clip-path="url(#clipPath18)"
         id="g14"><g
           id="g20"><g
             id="g22"><path
               id="path32"
               style="fill:url(#linearGradient30);stroke:none"
               d="M 510.035,1024 C 232.308,1024 0,803.364 0,531.196 v 0 C 0,396.18 62.593,273.867 152.342,184.861 v 0 c 9.578,-9.499 14.972,-22.422 14.972,-35.912 v 0 -98.269 c 0,-38.048 40.408,-62.49 74.107,-44.827 v 0 l 91.565,47.993 c 11.41,5.981 24.68,7.43 37.072,3.915 v 0 c 44.436,-12.601 91.398,-19.37 139.977,-19.37 v 0 C 787.764,38.391 1024,259.028 1024,531.196 v 0 C 1024,803.364 787.764,1024 510.035,1024 Z M 336.35,349.461 v 365.566 c 0,34.365 27.858,62.225 62.224,62.225 v 0 h 71.557 c 34.366,0 62.224,-27.86 62.224,-62.225 v 0 -250.686 c 0,-12.177 7.105,-23.235 18.18,-28.296 v 0 l 204.676,-93.54 c 28.281,-12.925 19.063,-55.267 -12.031,-55.267 v 0 H 398.574 c -34.366,0 -62.224,27.857 -62.224,62.223" /></g></g></g></g></g></svg>